<?xml version="1.0" encoding="UTF-8" standalone="no"?>
<svg
   xmlns:dc="http://purl.org/dc/elements/1.1/"
   xmlns:cc="http://creativecommons.org/ns#"
   xmlns:rdf="http://www.w3.org/1999/02/22-rdf-syntax-ns#"
   xmlns:svg="http://www.w3.org/2000/svg"
   xmlns="http://www.w3.org/2000/svg"
   id="svg8"
   version="1.1"
   viewBox="0 0 77.568489 77.568481"
   height="77.568481mm"
   width="77.568489mm">
  <defs
     id="defs2" />
  <metadata
     id="metadata5">
    <rdf:RDF>
      <cc:Work
         rdf:about="">
        <dc:format>image/svg+xml</dc:format>
        <dc:type
           rdf:resource="http://purl.org/dc/dcmitype/StillImage" />
        <dc:title></dc:title>
      </cc:Work>
    </rdf:RDF>
  </metadata>
  <g
     style="fill:none"
     transform="translate(-38.715751,-70.715749)"
     id="layer1">
    <path
       id="path851"
       d="M 111.82948,109.5 A 34.329476,34.329476 0 0 1 77.5,143.82948 34.329476,34.329476 0 0 1 43.170524,109.5 34.329476,34.329476 0 0 1 77.5,75.170524 34.329476,34.329476 0 0 1 111.82948,109.5 Z"
       style="fill:none;fill-opacity:1;stroke:#ffffff;stroke-width:0.91545272;stroke-linecap:butt;stroke-linejoin:round;stroke-miterlimit:4;stroke-dasharray:none;stroke-opacity:1" />
    <path
       id="path923"
       d="M 81.971632,74.474551 50.884669,128.31875 h 56.946441"
       style="fill:none;stroke:#000000;stroke-width:8;stroke-linecap:butt;stroke-linejoin:bevel;stroke-miterlimit:4;stroke-dasharray:none;stroke-opacity:1" />
    <path
       id="path921"
       d="M 69.728381,128.19493 69.539393,96.00782 83.571748,110.04017 97.604103,96.00782 v 33.1597"
       style="fill:none;stroke:#000000;stroke-width:8;stroke-linecap:butt;stroke-linejoin:bevel;stroke-miterlimit:4;stroke-dasharray:none;stroke-opacity:1" />
    <path
       transform="scale(0.26458333)"
       id="path859"
       d="m 350.63274,421.6909 c 0,-54.37204 -0.0353,-59.57212 -0.40995,-60.36159 -0.74487,-1.5697 -2.41749,-2.34621 -4.31621,-2.0038 -0.85452,0.1541 -3.66906,2.88359 -26.5262,25.72461 l -25.57026,25.55221 -24.10241,-24.11646 -24.10241,-24.11646 24.86854,-43.05776 24.86854,-43.05775 1.57062,-0.0833 c 3.61353,-0.19162 14.01117,0.86243 20.76351,2.10488 23.6681,4.35502 45.13645,14.48878 64.13501,30.27384 3.95752,3.28813 13.21387,12.55448 16.54659,16.56448 24.87771,29.93336 36.03643,67.66525 31.29482,105.81969 -2.03925,16.40921 -7.30056,33.05979 -15.02349,47.54514 l -1.44482,2.70995 h -31.27595 -31.27593 z"
       style="fill:none;fill-opacity:1;stroke:none;stroke-width:1.90894973;stroke-linecap:round;stroke-linejoin:round;stroke-miterlimit:4;stroke-dasharray:none;stroke-opacity:1;paint-order:stroke fill markers" />
    <path
       id="path851-3"
       d="M 113.37199,109.5 A 35.872001,35.872001 0 0 1 77.50001,145.37199 35.872001,35.872001 0 0 1 41.628002,109.5 35.872001,35.872001 0 0 1 77.50001,73.627995 35.872001,35.872001 0 0 1 113.37199,109.5 Z"
       style="fill:none;fill-opacity:1;stroke:#000000;stroke-width:4.88082886;stroke-linecap:butt;stroke-linejoin:round;stroke-miterlimit:4;stroke-dasharray:none;stroke-opacity:1" />
  </g>
</svg>
